<svg xmlns="http://www.w3.org/2000/svg" viewBox="0 0 900 700" role="img" aria-labelledby="title desc">
  <title id="title">Full House of Love art</title>
  <desc id="desc">A dreamy blue love house with a paper letter, hearts, gallery cards, and reasons.</desc>
  <defs>
    <linearGradient id="night" x1="0" y1="0" x2="1" y2="1">
      <stop offset="0" stop-color="#10233d"/>
      <stop offset="0.48" stop-color="#173a64"/>
      <stop offset="1" stop-color="#75d8ff"/>
    </linearGradient>
    <linearGradient id="paper" x1="0" y1="0" x2="1" y2="1">
      <stop offset="0" stop-color="#fffaf0"/>
      <stop offset="1" stop-color="#fff1e2"/>
    </linearGradient>
    <filter id="shadow" x="-20%" y="-20%" width="140%" height="140%">
      <feDropShadow dx="0" dy="28" stdDeviation="24" flood-color="#031223" flood-opacity="0.35"/>
    </filter>
  </defs>
  <rect width="900" height="700" fill="url(#night)"/>
  <circle cx="704" cy="116" r="128" fill="#77d7ff" opacity="0.2"/>
  <circle cx="176" cy="562" r="180" fill="#ff7ba3" opacity="0.12"/>
  <g fill="#fff" opacity="0.72">
    <circle cx="122" cy="92" r="4"/>
    <circle cx="220" cy="160" r="3"/>
    <circle cx="742" cy="282" r="4"/>
    <circle cx="816" cy="116" r="3"/>
    <circle cx="608" cy="78" r="5"/>
    <circle cx="90" cy="436" r="3"/>
  </g>
  <g filter="url(#shadow)">
    <path d="M218 604V326l232-168 232 168v278z" fill="#10243e"/>
    <path d="M164 344l286-207 286 207" fill="none" stroke="#77d7ff" stroke-width="30" stroke-linecap="round" stroke-linejoin="round"/>
    <rect x="296" y="370" width="310" height="178" rx="26" fill="url(#paper)"/>
    <path d="M330 412h236" stroke="#ead7c8" stroke-width="9" stroke-linecap="round"/>
    <path d="M330 456h200" stroke="#ead7c8" stroke-width="9" stroke-linecap="round"/>
    <path d="M330 500h150" stroke="#ead7c8" stroke-width="9" stroke-linecap="round"/>
    <path d="M500 346c24-34 75-24 87 15 18-37 73-42 96-7 33 52-56 102-96 150-43-44-132-98-87-158z" fill="#77d7ff"/>
  </g>
  <g transform="translate(128 188) rotate(-9)" filter="url(#shadow)">
    <rect width="130" height="150" rx="14" fill="#fff"/>
    <rect x="13" y="14" width="104" height="86" rx="10" fill="#284c72"/>
    <path d="M28 122h72" stroke="#d7efff" stroke-width="7" stroke-linecap="round"/>
  </g>
  <g transform="translate(652 394) rotate(8)" filter="url(#shadow)">
    <rect width="122" height="142" rx="14" fill="#fff"/>
    <rect x="13" y="14" width="96" height="78" rx="10" fill="#ff8fb2"/>
    <path d="M28 116h64" stroke="#f0d8e1" stroke-width="7" stroke-linecap="round"/>
  </g>
  <g fill="#77d7ff">
    <path d="M132 556c16-22 50-16 58 9 11-24 45-27 59-3 19 31-35 60-59 90-27-26-83-62-58-96z"/>
    <path d="M710 178c11-15 34-11 39 7 8-16 31-18 40-2 13 21-24 41-40 61-18-18-56-42-39-66z"/>
  </g>
</svg>
