<svg xmlns="http://www.w3.org/2000/svg" viewBox="0 0 900 700" role="img" aria-labelledby="title desc">
  <title id="title">Our Love Book art</title>
  <desc id="desc">An open scrapbook with creamy pages, photos, flowers, and page shadows.</desc>
  <defs>
    <linearGradient id="bg" x1="0" y1="0" x2="1" y2="1">
      <stop offset="0" stop-color="#fff7ee"/>
      <stop offset="0.55" stop-color="#f3e5d6"/>
      <stop offset="1" stop-color="#d9c1ea"/>
    </linearGradient>
    <linearGradient id="cover" x1="0" y1="0" x2="1" y2="1">
      <stop offset="0" stop-color="#c8a7de"/>
      <stop offset="1" stop-color="#76508d"/>
    </linearGradient>
    <filter id="shadow" x="-20%" y="-20%" width="140%" height="140%">
      <feDropShadow dx="0" dy="30" stdDeviation="28" flood-color="#4f385b" flood-opacity="0.28"/>
    </filter>
  </defs>
  <rect width="900" height="700" fill="url(#bg)"/>
  <circle cx="128" cy="152" r="96" fill="#fff" opacity="0.34"/>
  <circle cx="764" cy="544" r="128" fill="#f3a6c0" opacity="0.17"/>
  <path d="M118 482c18-26 56-18 66 12 13-28 52-31 68-4 22 36-42 69-68 105-31-31-94-71-66-113z" fill="#f295b6" opacity="0.35"/>
  <g filter="url(#shadow)">
    <path d="M128 170h644c31 0 56 25 56 56v340c0 31-25 56-56 56H128c-31 0-56-25-56-56V226c0-31 25-56 56-56z" fill="url(#cover)"/>
    <rect x="104" y="196" width="692" height="394" rx="38" fill="#fff4e6"/>
    <path d="M450 196v394" stroke="#c6aa8e" stroke-width="8" opacity="0.42"/>
    <path d="M438 198c-22 58-25 302 0 390" stroke="#8f6aa2" stroke-width="17" opacity="0.2"/>
    <path d="M462 198c22 58 25 302 0 390" stroke="#8f6aa2" stroke-width="17" opacity="0.2"/>
  </g>
  <g filter="url(#shadow)">
    <g transform="translate(156 248) rotate(-7)">
      <rect width="160" height="190" rx="12" fill="#fff"/>
      <rect x="15" y="16" width="130" height="120" rx="9" fill="#d5c3e3"/>
      <path d="M28 160h84" stroke="#b897c8" stroke-width="8" stroke-linecap="round"/>
    </g>
    <g transform="translate(286 348) rotate(6)">
      <rect width="138" height="160" rx="12" fill="#fff"/>
      <rect x="14" y="15" width="110" height="98" rx="9" fill="#efc5d3"/>
      <path d="M28 136h74" stroke="#d59aaa" stroke-width="7" stroke-linecap="round"/>
    </g>
    <g transform="translate(548 252) rotate(6)">
      <rect width="166" height="200" rx="12" fill="#fff"/>
      <rect x="16" y="16" width="134" height="126" rx="9" fill="#d9c9e7"/>
      <path d="M32 166h88" stroke="#b897c8" stroke-width="8" stroke-linecap="round"/>
    </g>
  </g>
  <g fill="#7f5593">
    <path d="M520 502h180" stroke="#7f5593" stroke-width="10" stroke-linecap="round"/>
    <path d="M520 538h138" stroke="#7f5593" stroke-width="10" stroke-linecap="round" opacity="0.7"/>
    <path d="M184 220h170" stroke="#7f5593" stroke-width="9" stroke-linecap="round" opacity="0.48"/>
  </g>
  <g>
    <circle cx="736" cy="208" r="22" fill="#f29dbb"/>
    <circle cx="760" cy="226" r="18" fill="#f29dbb"/>
    <circle cx="712" cy="228" r="18" fill="#f29dbb"/>
    <circle cx="736" cy="230" r="12" fill="#ffd66b"/>
    <circle cx="144" cy="570" r="18" fill="#d9c1ea"/>
    <circle cx="166" cy="584" r="15" fill="#d9c1ea"/>
    <circle cx="124" cy="586" r="15" fill="#d9c1ea"/>
    <circle cx="144" cy="586" r="10" fill="#ffd66b"/>
  </g>
</svg>
