<svg xmlns="http://www.w3.org/2000/svg" viewBox="0 0 900 700" role="img" aria-labelledby="title desc">
  <title id="title">Valentine confession art</title>
  <desc id="desc">A playful valentine scene with cards, hearts, ribbons, and confetti.</desc>
  <defs>
    <linearGradient id="bg" x1="0" y1="0" x2="1" y2="1">
      <stop offset="0" stop-color="#fff6f8"/>
      <stop offset="0.45" stop-color="#ffc8d8"/>
      <stop offset="1" stop-color="#ff4f7d"/>
    </linearGradient>
    <linearGradient id="heart" x1="0" y1="0" x2="1" y2="1">
      <stop offset="0" stop-color="#ff7da5"/>
      <stop offset="1" stop-color="#d81b60"/>
    </linearGradient>
    <filter id="shadow" x="-20%" y="-20%" width="140%" height="140%">
      <feDropShadow dx="0" dy="24" stdDeviation="23" flood-color="#8d123d" flood-opacity="0.28"/>
    </filter>
  </defs>
  <rect width="900" height="700" fill="url(#bg)"/>
  <circle cx="148" cy="126" r="96" fill="#fff" opacity="0.34"/>
  <circle cx="760" cy="548" r="136" fill="#fff" opacity="0.18"/>
  <g opacity="0.65">
    <path d="M112 512c22-31 70-22 82 14 16-34 64-38 84-5 27 45-51 88-84 130-38-38-116-86-82-139z" fill="#fff"/>
    <path d="M686 126c20-28 62-20 73 12 14-31 57-35 75-4 24 40-46 79-75 116-34-34-104-77-73-124z" fill="#fff"/>
  </g>
  <g filter="url(#shadow)">
    <path d="M360 180c40-56 124-40 146 25 29-61 120-68 158-8 55 86-92 169-158 250-72-72-219-162-146-267z" fill="url(#heart)"/>
    <path d="M380 204c30-39 87-29 105 19 20-45 83-49 110-7 41 61-61 124-110 182-53-52-156-118-105-194z" fill="#fff" opacity="0.18"/>
  </g>
  <g filter="url(#shadow)">
    <g transform="translate(172 248) rotate(-10)">
      <rect width="188" height="238" rx="24" fill="#fff8fb"/>
      <rect x="22" y="26" width="144" height="88" rx="16" fill="#ffe2ec"/>
      <path d="M68 140c12-18 39-13 46 7 8-19 36-21 46-3 14 24-27 45-46 68-22-20-62-47-46-72z" fill="#f43f73"/>
      <path d="M42 212h102" stroke="#f5a8bd" stroke-width="8" stroke-linecap="round"/>
    </g>
    <g transform="translate(564 286) rotate(9)">
      <rect width="172" height="218" rx="24" fill="#fff8fb"/>
      <rect x="20" y="24" width="132" height="78" rx="16" fill="#ffe2ec"/>
      <path d="M61 128c11-16 35-12 40 6 8-17 32-19 41-3 13 21-24 41-41 61-19-18-55-42-40-64z" fill="#f43f73"/>
      <path d="M38 194h92" stroke="#f5a8bd" stroke-width="8" stroke-linecap="round"/>
    </g>
  </g>
  <g fill="#fff">
    <circle cx="144" cy="214" r="7"/>
    <circle cx="232" cy="126" r="5"/>
    <circle cx="750" cy="242" r="6"/>
    <circle cx="798" cy="404" r="5"/>
    <circle cx="332" cy="572" r="6"/>
  </g>
  <g fill="none" stroke="#fff" stroke-width="8" stroke-linecap="round" opacity="0.75">
    <path d="M112 340c50-36 92-36 128 0"/>
    <path d="M650 548c46-24 84-24 116 0"/>
    <path d="M398 106c60-30 112-27 157 8"/>
  </g>
</svg>
